<svg width="225" height="225" version="1.1" xmlns="http://www.w3.org/2000/svg" desc="Created with imagetracer.js version 1.2.6" ><path fill="rgb(234,106,46)" stroke="rgb(234,106,46)" stroke-width="1" opacity="1" d="M 110.5 39 L 114.5 39 L 120.5 42 L 155.5 62 L 159 65.5 L 160 68.5 L 159 69.5 L 159 119.5 L 156.5 122 L 121.5 142 L 111.5 146 L 66 119.5 L 65 111.5 L 66 110.5 L 66 65.5 L 69.5 62 L 110.5 39 Z M 111 40 L 69 64 L 67 66 L 67 120 L 112 145 L 120 142 L 157 120 L 158 120 L 158 66 L 119 42 Q 116 39 111 40 Z " /><path fill="rgb(234,106,46)" stroke="rgb(234,106,46)" stroke-width="1" opacity="1" d="M 112.5 47 L 148 67.5 L 112.5 88 L 78 67.5 L 112.5 47 Z M 113 48 L 82 66 Q 79 65 80 68 L 113 87 L 146 68 L 113 48 Z " /><path fill="rgb(234,106,46)" stroke="rgb(234,106,46)" stroke-width="1" opacity="1" d="M 74.5 73 L 109 93.5 L 109 134.5 L 107.5 135 L 74 114.5 L 74.5 73 Z M 76 75 L 75 115 L 107 133 L 108 133 L 108 95 L 76 75 Z " /><path fill="rgb(234,106,46)" stroke="rgb(234,106,46)" stroke-width="1" opacity="1" d="M 151.5 73 L 152 113.5 L 151.5 116 L 116.5 136 L 116 93 L 151.5 73 Z M 150 75 L 117 95 L 118 134 L 150 116 L 150 91 L 151 90 L 151 76 L 150 75 Z " /><path fill="rgb(234,106,46)" stroke="rgb(234,106,46)" stroke-width="1" opacity="1" d="M 21.5 151 Q 26.3 150.3 27 153.5 L 27 176.5 L 28.5 178 L 31 178 L 31 171.5 L 36.5 164 Q 39.4 161.4 45.5 162 Q 51.3 163.3 54 167.5 L 55.5 172 L 56 153.5 L 58.5 151 Q 64.3 150.3 65 154.5 L 65 162.5 L 67.5 163 L 71.5 162 L 78 166.5 L 79.5 170 L 84.5 164 Q 87.4 161.4 93.5 162 Q 100 163.5 103 168.5 L 103.5 171 Q 102.7 164.7 106.5 163 L 113.5 164 L 120.5 162 L 126 166.5 L 127.5 170 L 132.5 164 Q 135.4 161.4 141.5 162 L 150.5 168 Q 153.3 161.3 163.5 162 Q 169.6 163.4 172 168.5 Q 174.3 171.7 173 178.5 L 167.5 185 Q 164 187.5 156.5 186 L 149.5 181 Q 146.5 188 134.5 186 L 128 180.5 L 127.5 179 Q 128.4 184.4 125.5 186 Q 119.5 187.5 118 184.5 L 118 172.5 L 116.5 171 L 113 172.5 L 113 184.5 L 111.5 186 Q 105.5 187.5 104 184.5 L 103.5 178 L 99.5 184 Q 95.8 187.3 87.5 186 L 79.5 179 L 74.5 185 L 65.5 186 L 63.5 186 Q 57.5 187.5 56 184.5 L 56 176.5 L 52 166 L 45.5 163 L 41.5 163 L 34 167.5 Q 30.7 171.4 32 179 Q 27.4 180.3 26 177.5 L 26 153.5 L 24.5 153 L 21.5 152 L 19 154.5 L 19 178.5 L 23.5 184 Q 26.7 186.3 33.5 185 L 36.5 183 Q 39.4 186.6 47.5 185 L 53.5 180 L 53 181.5 L 51.5 184 Q 47.8 187.3 39.5 186 L 36.5 184 L 34.5 186 L 25.5 186 L 19 180.5 L 18 178.5 L 18 154.5 L 21.5 151 Z M 60 152 L 57 153 L 57 185 Q 57 186 64 185 L 66 185 L 75 184 L 79 179 Q 80 170 77 167 L 72 163 Q 67 162 66 165 L 64 165 L 64 155 Q 63 151 60 152 Z M 90 163 L 83 166 L 80 173 L 82 181 L 88 185 Q 96 186 100 183 L 103 178 Q 104 171 101 168 Q 98 163 90 163 Z M 118 163 L 113 165 L 111 166 Q 112 162 107 164 L 105 166 L 105 185 L 112 185 L 112 173 Q 113 169 118 170 L 119 173 L 119 185 L 126 185 L 126 170 L 125 167 Q 124 162 118 163 Z M 138 163 L 133 165 L 128 171 Q 127 178 130 182 L 136 185 Q 142 186 146 184 L 149 179 L 144 177 L 141 179 Q 136 180 135 177 L 136 170 L 139 169 L 143 171 L 147 170 Q 150 171 149 169 Q 146 163 138 163 Z M 160 163 L 155 165 L 150 171 Q 149 177 151 181 L 157 185 Q 164 187 168 184 L 172 179 Q 173 172 171 169 Q 168 163 160 163 Z M 140 170 L 136 173 Q 135 177 138 178 Q 142 179 143 176 L 148 178 L 149 178 L 149 171 L 146 172 Q 141 173 140 170 Z " /><path fill="rgb(234,106,46)" stroke="rgb(234,106,46)" stroke-width="1" opacity="1" d="M 176.5 151 Q 181.6 150.4 183 153.5 L 184 157.5 L 180.5 162 Q 174 163 173 158.5 Q 172 152 176.5 151 Z M 178 152 L 174 155 Q 173 160 177 161 L 182 160 L 183 158 L 182 153 L 178 152 Z " /><path fill="rgb(234,106,46)" stroke="rgb(234,106,46)" stroke-width="1" opacity="1" d="M 197.5 162 Q 203.9 162.1 206 166.5 L 207 168.5 L 207 184.5 Q 205.5 187.5 199.5 186 L 198 184.5 L 198 172.5 L 196.5 171 L 193 172.5 L 193 184.5 L 191.5 186 Q 185.5 187.5 184 184.5 L 184 165.5 L 186.5 163 L 193.5 164 L 197.5 162 Z M 198 163 L 192 166 L 191 164 Q 186 163 185 166 L 185 185 L 192 185 L 192 173 L 195 170 Q 198 169 199 172 L 199 185 L 206 185 L 206 170 L 205 167 Q 204 162 198 163 Z " /><path fill="rgb(234,106,46)" stroke="rgb(234,106,46)" stroke-width="1" opacity="1" d="M 176.5 163 Q 182 162 183 165.5 L 183 183.5 L 180.5 186 Q 175 187 174 183.5 L 174 165.5 L 176.5 163 Z M 177 164 L 175 166 L 175 184 Q 176 186 181 185 L 182 184 L 182 166 Q 181 163 177 164 Z " /><path fill="rgb(234,106,46)" stroke="rgb(234,106,46)" stroke-width="1" opacity="1" d="M 41.5 169 Q 46 168 47 170.5 L 46.5 172 L 39.5 172 L 41.5 169 Z M 42 170 L 42 171 L 46 171 L 42 170 Z " /><path fill="rgb(234,106,46)" stroke="rgb(234,106,46)" stroke-width="1" opacity="1" d="M 67.5 169 L 71 170 L 72 176.5 Q 71 180 65.5 179 Q 62.5 177.5 64 171.5 L 67.5 169 Z M 67 171 L 65 173 Q 62 180 70 178 Q 72 177 71 173 Q 70 170 67 171 Z " /><path fill="rgb(234,106,46)" stroke="rgb(234,106,46)" stroke-width="1" opacity="1" d="M 91.5 169 L 96 172.5 Q 96.6 177.6 93.5 179 Q 89 180 88 177.5 Q 86.5 171.5 89.5 170 L 91.5 169 Z M 92 170 L 91 171 Q 88 170 89 177 Q 90 179 94 178 L 95 176 L 94 171 L 92 170 Z " /><path fill="rgb(234,106,46)" stroke="rgb(234,106,46)" stroke-width="1" opacity="1" d="M 160.5 169 L 165 171.5 Q 166.3 177.8 162.5 179 Q 157.8 179.8 157 176.5 L 158 170 L 160.5 169 Z M 160 171 Q 157 172 158 177 Q 159 179 163 178 Q 165 177 164 173 Q 163 170 160 171 Z " /><path fill="rgb(234,106,46)" stroke="rgb(234,106,46)" stroke-width="1" opacity="1" d="M 40 177 L 54 177.5 L 51.5 179 L 47.5 178 Q 46.5 181 41.5 180 L 40 177 Z M 43 178 L 43 179 L 46 179 L 43 178 Z " /><path fill="rgb(234,107,47)" stroke="rgb(234,107,47)" stroke-width="1" opacity="1" d="M 0 0 L 225 0 L 225 225 L 0 225 L 0 0 Z M 111 39 L 109 40 L 109 42 L 107 41 L 107 43 L 106 42 L 102 44 L 102 46 L 100 45 L 100 47 L 99 46 L 95 48 L 95 50 L 93 49 L 93 51 L 92 50 L 88 52 L 88 54 L 86 53 L 86 55 L 85 54 L 81 56 L 81 58 L 79 57 L 79 59 L 78 58 L 74 60 L 74 62 L 72 61 L 72 63 L 70 62 L 66 66 L 66 111 L 65 112 L 66 120 L 68 119 L 69 122 L 71 121 L 71 123 L 73 122 L 72 124 L 76 126 L 78 125 L 78 127 L 80 126 L 79 128 L 83 130 L 85 129 L 85 131 L 87 130 L 86 132 L 90 134 L 92 133 L 92 135 L 94 134 L 93 136 L 97 138 L 99 137 L 99 139 L 101 138 L 100 140 L 104 142 L 106 141 L 106 143 L 108 142 L 107 144 L 112 146 L 118 144 L 118 142 L 120 143 L 119 142 L 121 142 L 125 140 L 125 138 L 127 139 L 126 138 L 128 138 L 132 136 L 132 134 L 134 135 L 133 134 L 135 134 L 139 132 L 139 130 L 141 131 L 140 130 L 142 130 L 146 128 L 146 126 L 148 127 L 147 126 L 149 126 L 153 124 L 153 122 L 155 123 L 155 121 L 157 122 Q 159 121 157 120 L 159 120 L 159 70 L 160 69 L 156 62 L 154 63 L 154 61 L 152 62 L 152 61 L 149 58 L 147 59 L 147 57 L 145 58 L 145 57 L 142 54 L 140 55 L 140 53 L 138 54 L 138 53 L 135 50 L 133 51 L 133 49 L 131 50 L 131 49 L 128 46 L 126 47 L 126 45 L 124 46 L 124 45 L 121 42 L 119 43 L 119 41 L 117 42 L 117 41 Q 115 38 111 39 Z M 22 151 L 22 153 L 21 152 Q 18 153 20 155 L 19 154 L 18 179 L 20 179 L 19 181 L 23 184 L 24 183 L 24 185 L 26 184 L 26 186 L 35 186 L 37 184 L 40 186 Q 48 187 52 184 L 54 181 L 53 179 L 54 177 L 41 177 L 40 178 L 39 176 L 54 176 L 55 175 L 56 177 L 56 185 Q 58 187 64 186 L 63 185 L 64 183 L 64 185 L 66 184 L 66 186 L 75 185 L 78 182 L 77 181 L 79 181 L 78 179 L 85 184 L 86 183 L 86 185 L 88 184 L 88 186 Q 96 187 100 184 L 99 183 Q 100 180 102 182 L 103 179 L 103 177 Q 106 179 104 185 Q 105 187 112 186 L 113 185 L 113 173 L 117 171 L 119 172 L 118 173 L 118 185 Q 120 187 126 186 Q 128 184 128 179 L 128 181 Q 129 183 131 181 Q 133 182 131 184 Q 134 188 144 186 L 144 184 L 146 185 L 145 184 L 147 184 Q 151 182 148 181 L 150 181 L 152 180 Q 156 183 155 185 L 157 184 L 156 186 L 166 186 L 166 184 L 168 185 L 167 184 L 169 184 Q 173 182 170 181 L 172 181 L 171 179 L 173 179 Q 174 172 172 169 Q 170 163 164 162 L 159 163 L 163 163 L 163 164 L 156 163 L 151 168 L 152 169 L 150 168 L 146 164 L 145 165 L 145 163 L 142 164 L 137 163 L 133 164 L 129 168 L 130 169 L 128 169 L 129 171 L 127 169 L 126 171 L 125 171 L 126 169 Q 127 164 123 163 L 121 164 L 117 163 L 111 165 L 111 164 L 107 163 L 107 165 Q 106 167 105 165 L 104 171 L 102 172 L 103 169 Q 102 166 101 168 Q 96 166 99 165 L 97 163 L 94 164 L 87 163 L 87 165 L 85 164 Q 82 165 84 167 L 81 168 L 82 170 Q 80 168 79 171 L 79 170 L 78 167 L 77 167 Q 74 166 76 165 L 74 163 L 72 164 L 68 163 L 65 163 L 65 155 L 64 155 L 64 154 Q 63 151 62 153 L 62 152 L 59 151 Q 56 152 58 154 L 57 153 L 56 172 L 55 174 L 54 174 L 55 170 L 53 170 L 54 168 Q 53 165 52 167 L 51 164 L 49 165 L 49 163 L 46 164 L 41 163 L 37 164 L 37 166 Q 35 170 34 167 L 32 170 L 33 172 L 31 172 L 31 178 L 29 178 L 27 177 L 27 154 L 26 154 L 26 153 Q 25 150 22 151 Z M 177 151 Q 174 152 176 154 Q 175 156 174 154 L 173 159 L 175 158 L 174 160 Q 175 162 177 160 L 176 162 L 181 162 Q 183 161 181 160 L 183 160 L 184 158 L 183 154 L 182 154 L 182 153 L 177 151 Z M 42 162 L 42 163 L 46 163 L 42 162 Z M 69 162 L 69 163 L 72 163 L 69 162 Z M 90 162 L 90 163 L 94 163 L 90 162 Z M 118 162 L 118 163 L 121 163 L 118 162 Z M 138 162 L 138 163 L 142 163 L 138 162 Z M 198 162 L 198 164 L 197 163 L 191 165 L 191 164 L 187 163 L 187 165 Q 186 167 185 165 L 184 185 Q 185 187 192 186 L 193 185 L 193 173 L 197 171 L 198 173 L 198 185 L 200 186 Q 205 187 207 185 L 207 169 L 203 163 L 201 164 L 201 163 L 198 162 Z M 177 163 Q 174 164 176 166 L 175 165 L 174 184 L 176 183 Q 178 184 176 186 L 181 186 L 180 185 Q 181 182 183 184 L 183 166 L 182 166 Q 179 165 181 164 L 177 163 Z " /><path fill="rgb(234,107,47)" stroke="rgb(234,107,47)" stroke-width="1" opacity="1" d="M 112.5 48 L 114.5 49 L 116 48.5 L 115.5 50 L 119.5 52 L 121 51.5 L 120.5 53 L 122.5 52 L 122.5 54 L 126.5 56 L 128 55.5 L 127.5 57 L 129.5 56 L 129.5 58 L 133.5 60 L 135 59.5 L 134.5 61 L 138.5 63 L 140 62.5 L 139.5 64 L 141.5 63 L 141.5 65 L 145.5 67 L 147 66.5 L 141 70.5 L 141.5 72 L 139.5 71 L 139.5 73 L 137.5 73 L 134 74.5 L 134.5 76 L 132.5 75 L 132.5 77 L 130.5 76 L 127 78.5 L 127.5 80 L 125.5 79 L 125.5 81 L 123.5 80 L 118 83.5 L 118.5 85 L 116.5 84 L 116.5 86 L 114.5 86 L 112.5 87 L 110 86.5 L 110.5 85 L 108.5 86 L 108.5 84 L 104.5 82 L 103 82.5 L 103.5 81 L 101.5 82 L 101.5 80 L 97.5 78 L 96 78.5 L 96.5 77 L 92.5 75 L 91 75.5 L 91.5 74 L 89.5 75 L 89.5 73 L 85.5 71 L 84 71.5 L 84.5 70 L 82.5 71 L 82.5 69 L 80 67.5 Q 79.3 65.3 81.5 66 L 84 64.5 L 83.5 63 L 85.5 64 L 85.5 62 L 87.5 63 L 91 60.5 L 90.5 59 L 92.5 60 L 92.5 58 L 94.5 59 L 100 55.5 L 99.5 54 L 101.5 55 L 101.5 53 L 103.5 53 L 107 51.5 L 106.5 50 L 108.5 51 L 108.5 49 L 110.5 50 L 112.5 48 Z " /><path fill="rgb(234,107,47)" stroke="rgb(234,107,47)" stroke-width="1" opacity="1" d="M 78.5 66 L 77.5 68 L 78.5 66 Z " /><path fill="rgb(234,107,47)" stroke="rgb(234,107,47)" stroke-width="1" opacity="1" d="M 73.5 73 L 74.5 115 L 75 75.5 L 76.5 74 L 76.5 76 L 78.5 75 L 78.5 77 L 82.5 79 L 84 78.5 L 83.5 80 L 85.5 79 L 85.5 81 L 89.5 83 L 91 82.5 L 90.5 84 L 94.5 86 L 96 85.5 L 95.5 87 L 97.5 86 L 97.5 88 L 101.5 90 L 103 89.5 L 102.5 91 L 104.5 90 L 104.5 92 L 108 94.5 L 108 132.5 L 106.5 133 L 105 133.5 L 105.5 132 L 101.5 130 L 100 130.5 L 100.5 129 L 98.5 130 L 98.5 128 L 94.5 126 L 93 126.5 L 93.5 125 L 91.5 126 L 91.5 124 L 87.5 122 L 86 122.5 L 86.5 121 L 82.5 119 L 81 119.5 L 81.5 118 L 79.5 119 L 79.5 117 L 75.5 115 Q 74.3 117.3 73 114.5 L 73.5 73 Z " /><path fill="rgb(234,107,47)" stroke="rgb(234,107,47)" stroke-width="1" opacity="1" d="M 147.5 75 L 149.5 75 L 151 75.5 L 151 89.5 L 150 90.5 L 150 116 L 148 116.5 L 148.5 118 L 146.5 117 L 146.5 119 L 144.5 119 L 141 120.5 L 141.5 122 L 139.5 121 L 139.5 123 L 137.5 122 L 134 124.5 L 134.5 126 L 132.5 125 L 132.5 127 L 130.5 126 L 127 128.5 L 127.5 130 L 125.5 129 L 125.5 131 L 123.5 130 L 120 132.5 L 120.5 134 L 118.5 133 L 118.5 135 L 117 133.5 L 117 94.5 L 117.5 92 L 119.5 93 L 123 90.5 L 122.5 89 L 124.5 90 L 124.5 88 L 126.5 89 L 132 85.5 L 131.5 84 L 133.5 85 L 133.5 83 L 135.5 83 L 139 81.5 L 138.5 80 L 140.5 81 L 140.5 79 L 142.5 79 L 146 77.5 L 145.5 76 L 147.5 77 L 147.5 75 Z " /><path fill="rgb(234,107,47)" stroke="rgb(234,107,47)" stroke-width="1" opacity="1" d="M 112.5 165 L 111.5 167 L 112.5 165 Z " /><path fill="rgb(234,107,47)" stroke="rgb(234,107,47)" stroke-width="1" opacity="1" d="M 192.5 165 L 191.5 167 L 192.5 165 Z " /><path fill="rgb(234,107,47)" stroke="rgb(234,107,47)" stroke-width="1" opacity="1" d="M 40.5 169 L 46 170.5 L 41.5 171 L 40.5 169 Z " /><path fill="rgb(234,107,47)" stroke="rgb(234,107,47)" stroke-width="1" opacity="1" d="M 90.5 169 L 93 169.5 L 92.5 171 L 94.5 170 L 94 171.5 L 96 176.5 L 94 176.5 Q 94.9 179.5 90.5 178 Q 87.5 176.4 89 171 L 91 170.5 L 90.5 169 Z " /><path fill="rgb(234,107,47)" stroke="rgb(234,107,47)" stroke-width="1" opacity="1" d="M 140.5 169 L 140.5 171 L 145.5 172 L 145.5 170 L 149 171 L 149 177.5 L 147.5 178 L 146 178.5 L 146.5 177 L 141.5 179 L 137.5 178 L 136 178.5 L 136 176.5 L 135 171.5 L 137.5 171 L 140.5 169 Z " /><path fill="rgb(234,107,47)" stroke="rgb(234,107,47)" stroke-width="1" opacity="1" d="M 66.5 171 L 70.5 172 L 72 171.5 L 69.5 178 Q 62.3 180.3 65 172.5 L 66.5 171 Z " /><path fill="rgb(234,107,47)" stroke="rgb(234,107,47)" stroke-width="1" opacity="1" d="M 157.5 171 L 159.5 171 Q 163.3 170.3 164 172.5 L 165 177.5 Q 163.8 180.3 162.5 178 L 158.5 179 Q 155.8 177.8 158 176.5 L 157.5 171 Z " /><path fill="rgb(234,107,47)" stroke="rgb(234,107,47)" stroke-width="1" opacity="1" d="M 80.5 172 L 81 175.5 L 80 175.5 L 80.5 172 Z " /><path fill="rgb(234,107,47)" stroke="rgb(234,107,47)" stroke-width="1" opacity="1" d="M 87.5 173 L 88 175.5 L 87 175.5 L 87.5 173 Z " /><path fill="rgb(234,107,47)" stroke="rgb(234,107,47)" stroke-width="1" opacity="1" d="M 42.5 178 L 46 178.5 L 42.5 179 L 42.5 178 Z " /><path fill="rgb(245,197,180)" stroke="rgb(245,197,180)" stroke-width="1" opacity="1" d="M 68.5 64 L 67.5 66 L 68.5 64 Z " /><path fill="rgb(245,197,180)" stroke="rgb(245,197,180)" stroke-width="1" opacity="1" d="M 156.5 64 L 157.5 66 L 156.5 64 Z " /><path fill="rgb(245,197,180)" stroke="rgb(245,197,180)" stroke-width="1" opacity="1" d="M 147.5 66 Q 150.5 67.5 147.5 69 L 147.5 66 Z " /><path fill="rgb(245,197,180)" stroke="rgb(245,197,180)" stroke-width="1" opacity="1" d="M 108.5 92 L 110 93.5 L 110 136 L 108 135.5 L 109 134.5 L 109 93.5 L 108.5 92 Z " /><path fill="rgb(245,197,180)" stroke="rgb(245,197,180)" stroke-width="1" opacity="1" d="M 115.5 93 L 116 135.5 L 115 135.5 L 115.5 93 Z " /><path fill="rgb(245,197,180)" stroke="rgb(245,197,180)" stroke-width="1" opacity="1" d="M 111.5 144 L 114 144.5 L 111.5 145 L 111.5 144 Z " /><path fill="rgb(245,197,180)" stroke="rgb(245,197,180)" stroke-width="1" opacity="1" d="M 177.5 152 L 180 152.5 L 177.5 153 L 177.5 152 Z " /><path fill="rgb(245,197,180)" stroke="rgb(245,197,180)" stroke-width="1" opacity="1" d="M 19.5 155 L 20 177.5 L 19 177.5 L 19.5 155 Z " /><path fill="rgb(245,197,180)" stroke="rgb(245,197,180)" stroke-width="1" opacity="1" d="M 63.5 155 L 64 166.5 L 63 166.5 L 63.5 155 Z " /><path fill="rgb(245,197,180)" stroke="rgb(245,197,180)" stroke-width="1" opacity="1" d="M 174.5 155 L 175 157.5 L 174 157.5 L 174.5 155 Z " /><path fill="rgb(245,197,180)" stroke="rgb(245,197,180)" stroke-width="1" opacity="1" d="M 182.5 155 L 183 157.5 L 182 157.5 L 182.5 155 Z " /><path fill="rgb(245,197,180)" stroke="rgb(245,197,180)" stroke-width="1" opacity="1" d="M 177.5 160 L 180 160.5 L 177.5 161 L 177.5 160 Z " /><path fill="rgb(245,197,180)" stroke="rgb(245,197,180)" stroke-width="1" opacity="1" d="M 122.5 164 L 124.5 167 L 122.5 164 Z " /><path fill="rgb(245,197,180)" stroke="rgb(245,197,180)" stroke-width="1" opacity="1" d="M 202.5 164 L 204.5 167 L 202.5 164 Z " /><path fill="rgb(245,197,180)" stroke="rgb(245,197,180)" stroke-width="1" opacity="1" d="M 132.5 165 L 130.5 168 L 132.5 165 Z " /><path fill="rgb(245,197,180)" stroke="rgb(245,197,180)" stroke-width="1" opacity="1" d="M 145.5 165 L 149 168.5 L 147.5 170 L 148 168.5 L 145.5 165 Z " /><path fill="rgb(245,197,180)" stroke="rgb(245,197,180)" stroke-width="1" opacity="1" d="M 154.5 165 L 152.5 168 L 154.5 165 Z " /><path fill="rgb(245,197,180)" stroke="rgb(245,197,180)" stroke-width="1" opacity="1" d="M 167.5 165 L 170.5 169 L 167.5 165 Z " /><path fill="rgb(245,197,180)" stroke="rgb(245,197,180)" stroke-width="1" opacity="1" d="M 105.5 166 L 106 184.5 L 105 184.5 L 105.5 166 Z " /><path fill="rgb(245,197,180)" stroke="rgb(245,197,180)" stroke-width="1" opacity="1" d="M 175.5 166 L 176 182.5 L 175 182.5 L 175.5 166 Z " /><path fill="rgb(245,197,180)" stroke="rgb(245,197,180)" stroke-width="1" opacity="1" d="M 181.5 166 L 182 182.5 L 181 182.5 L 181.5 166 Z " /><path fill="rgb(245,197,180)" stroke="rgb(245,197,180)" stroke-width="1" opacity="1" d="M 185.5 166 L 186 184.5 L 185 184.5 L 185.5 166 Z " /><path fill="rgb(245,197,180)" stroke="rgb(245,197,180)" stroke-width="1" opacity="1" d="M 89.5 169 L 88.5 171 L 89.5 169 Z " /><path fill="rgb(245,197,180)" stroke="rgb(245,197,180)" stroke-width="1" opacity="1" d="M 117.5 169 L 118.5 171 L 117.5 169 Z " /><path fill="rgb(245,197,180)" stroke="rgb(245,197,180)" stroke-width="1" opacity="1" d="M 194.5 169 L 192.5 172 L 194.5 169 Z " /><path fill="rgb(245,197,180)" stroke="rgb(245,197,180)" stroke-width="1" opacity="1" d="M 197.5 169 L 198.5 171 L 197.5 169 Z " /><path fill="rgb(245,197,180)" stroke="rgb(245,197,180)" stroke-width="1" opacity="1" d="M 113.5 170 L 112.5 172 L 113.5 170 Z " /><path fill="rgb(245,197,180)" stroke="rgb(245,197,180)" stroke-width="1" opacity="1" d="M 142.5 170 L 145 170.5 L 142.5 171 L 142.5 170 Z " /><path fill="rgb(245,197,180)" stroke="rgb(245,197,180)" stroke-width="1" opacity="1" d="M 205.5 170 L 206 184.5 L 205 184.5 L 205.5 170 Z " /><path fill="rgb(245,197,180)" stroke="rgb(245,197,180)" stroke-width="1" opacity="1" d="M 47.5 171 L 48 173 L 39 172.5 L 47.5 171 Z " /><path fill="rgb(245,197,180)" stroke="rgb(245,197,180)" stroke-width="1" opacity="1" d="M 125.5 171 L 126 184.5 L 125 184.5 L 125.5 171 Z " /><path fill="rgb(245,197,180)" stroke="rgb(245,197,180)" stroke-width="1" opacity="1" d="M 32.5 172 L 33 176.5 L 32 176.5 L 32.5 172 Z " /><path fill="rgb(245,197,180)" stroke="rgb(245,197,180)" stroke-width="1" opacity="1" d="M 63.5 172 L 65 178.5 L 63 177.5 L 63.5 172 Z " /><path fill="rgb(245,197,180)" stroke="rgb(245,197,180)" stroke-width="1" opacity="1" d="M 102.5 172 L 103 176.5 L 102 176.5 L 102.5 172 Z " /><path fill="rgb(245,197,180)" stroke="rgb(245,197,180)" stroke-width="1" opacity="1" d="M 165.5 172 L 166 175.5 L 165 175.5 L 165.5 172 Z " /><path fill="rgb(245,197,180)" stroke="rgb(245,197,180)" stroke-width="1" opacity="1" d="M 72.5 173 L 73 175.5 L 72 175.5 L 72.5 173 Z " /><path fill="rgb(245,197,180)" stroke="rgb(245,197,180)" stroke-width="1" opacity="1" d="M 134.5 173 L 135 175.5 L 134 175.5 L 134.5 173 Z " /><path fill="rgb(245,197,180)" stroke="rgb(245,197,180)" stroke-width="1" opacity="1" d="M 156.5 173 L 157 175.5 L 156 175.5 L 156.5 173 Z " /><path fill="rgb(245,197,180)" stroke="rgb(245,197,180)" stroke-width="1" opacity="1" d="M 71.5 177 L 70.5 179 L 71.5 177 Z " /><path fill="rgb(245,197,180)" stroke="rgb(245,197,180)" stroke-width="1" opacity="1" d="M 95.5 177 L 94.5 179 L 95.5 177 Z " /><path fill="rgb(245,197,180)" stroke="rgb(245,197,180)" stroke-width="1" opacity="1" d="M 47.5 178 L 46.5 180 L 47.5 178 Z " /><path fill="rgb(245,197,180)" stroke="rgb(245,197,180)" stroke-width="1" opacity="1" d="M 28.5 179 L 31 179.5 L 28.5 180 L 28.5 179 Z " /><path fill="rgb(245,197,180)" stroke="rgb(245,197,180)" stroke-width="1" opacity="1" d="M 66.5 179 L 69 179.5 L 66.5 180 L 66.5 179 Z " /><path fill="rgb(245,197,180)" stroke="rgb(245,197,180)" stroke-width="1" opacity="1" d="M 90.5 179 L 93 179.5 L 90.5 180 L 90.5 179 Z " /><path fill="rgb(245,197,180)" stroke="rgb(245,197,180)" stroke-width="1" opacity="1" d="M 137.5 179 L 141 179.5 L 137.5 180 L 137.5 179 Z " /><path fill="rgb(245,197,180)" stroke="rgb(245,197,180)" stroke-width="1" opacity="1" d="M 159.5 179 L 163 179.5 L 159.5 180 L 159.5 179 Z " /><path fill="rgb(245,197,180)" stroke="rgb(245,197,180)" stroke-width="1" opacity="1" d="M 20.5 180 L 22.5 183 L 20.5 180 Z " /><path fill="rgb(245,197,180)" stroke="rgb(245,197,180)" stroke-width="1" opacity="1" d="M 42.5 180 L 45 180.5 L 42.5 181 L 42.5 180 Z " /><path fill="rgb(245,197,180)" stroke="rgb(245,197,180)" stroke-width="1" opacity="1" d="M 82.5 180 L 84.5 183 L 82.5 180 Z " /><path fill="rgb(245,197,180)" stroke="rgb(245,197,180)" stroke-width="1" opacity="1" d="M 76.5 181 L 74.5 184 L 76.5 181 Z " /><path fill="rgb(245,197,180)" stroke="rgb(245,197,180)" stroke-width="1" opacity="1" d="M 147.5 181 L 146.5 183 L 147.5 181 Z " /><path fill="rgb(245,197,180)" stroke="rgb(245,197,180)" stroke-width="1" opacity="1" d="M 169.5 181 L 168.5 183 L 169.5 181 Z " /><path fill="rgb(245,197,180)" stroke="rgb(245,197,180)" stroke-width="1" opacity="1" d="M 50.5 182 L 49.5 184 L 50.5 182 Z " /><path fill="rgb(245,197,180)" stroke="rgb(245,197,180)" stroke-width="1" opacity="1" d="M 63.5 182 L 64.5 184 L 63.5 182 Z " /><path fill="rgb(254,254,254)" stroke="rgb(254,254,254)" stroke-width="1" opacity="1" d="M 180.5 153 L 181.5 155 L 180.5 153 Z " /><path fill="rgb(254,254,254)" stroke="rgb(254,254,254)" stroke-width="1" opacity="1" d="M 25.5 155 L 26 176.5 L 25 176.5 L 25.5 155 Z " /><path fill="rgb(254,254,254)" stroke="rgb(254,254,254)" stroke-width="1" opacity="1" d="M 57.5 155 L 58 184 L 62 184.5 L 57 185 L 57.5 155 Z " /><path fill="rgb(254,254,254)" stroke="rgb(254,254,254)" stroke-width="1" opacity="1" d="M 50.5 166 L 51.5 168 L 50.5 166 Z " /><path fill="rgb(254,254,254)" stroke="rgb(254,254,254)" stroke-width="1" opacity="1" d="M 84.5 166 L 83.5 168 L 84.5 166 Z " /><path fill="rgb(254,254,254)" stroke="rgb(254,254,254)" stroke-width="1" opacity="1" d="M 70.5 169 L 71.5 171 L 70.5 169 Z " /><path fill="rgb(254,254,254)" stroke="rgb(254,254,254)" stroke-width="1" opacity="1" d="M 136.5 169 L 135.5 171 L 136.5 169 Z " /><path fill="rgb(254,254,254)" stroke="rgb(254,254,254)" stroke-width="1" opacity="1" d="M 158.5 169 L 157.5 171 L 158.5 169 Z " /><path fill="rgb(254,254,254)" stroke="rgb(254,254,254)" stroke-width="1" opacity="1" d="M 163.5 169 L 164.5 171 L 163.5 169 Z " /><path fill="rgb(254,254,254)" stroke="rgb(254,254,254)" stroke-width="1" opacity="1" d="M 78.5 172 L 79 175.5 L 78 175.5 L 78.5 172 Z " /><path fill="rgb(254,254,254)" stroke="rgb(254,254,254)" stroke-width="1" opacity="1" d="M 111.5 172 L 112 185 L 107 184.5 L 111 184 L 111.5 172 Z " /><path fill="rgb(254,254,254)" stroke="rgb(254,254,254)" stroke-width="1" opacity="1" d="M 150.5 172 L 151 175.5 L 150 175.5 L 150.5 172 Z " /><path fill="rgb(254,254,254)" stroke="rgb(254,254,254)" stroke-width="1" opacity="1" d="M 199.5 172 L 200 184 L 205 184.5 L 199 185 L 199.5 172 Z " /><path fill="rgb(254,254,254)" stroke="rgb(254,254,254)" stroke-width="1" opacity="1" d="M 96.5 173 L 97 175.5 L 96 175.5 L 96.5 173 Z " /><path fill="rgb(254,254,254)" stroke="rgb(254,254,254)" stroke-width="1" opacity="1" d="M 128.5 173 L 129 175.5 L 128 175.5 L 128.5 173 Z " /><path fill="rgb(254,254,254)" stroke="rgb(254,254,254)" stroke-width="1" opacity="1" d="M 191.5 173 L 192 185 L 186 184.5 L 191 184 L 191.5 173 Z " /><path fill="rgb(254,254,254)" stroke="rgb(254,254,254)" stroke-width="1" opacity="1" d="M 100.5 180 L 98.5 183 L 100.5 180 Z " /><path fill="rgb(254,254,254)" stroke="rgb(254,254,254)" stroke-width="1" opacity="1" d="M 27.5 184 L 32 184.5 L 27.5 185 L 27.5 184 Z " /><path fill="rgb(254,254,254)" stroke="rgb(254,254,254)" stroke-width="1" opacity="1" d="M 41.5 184 L 46 184.5 L 41.5 185 L 41.5 184 Z " /><path fill="rgb(254,254,254)" stroke="rgb(254,254,254)" stroke-width="1" opacity="1" d="M 67.5 184 L 71 184.5 L 67.5 185 L 67.5 184 Z " /><path fill="rgb(254,254,254)" stroke="rgb(254,254,254)" stroke-width="1" opacity="1" d="M 89.5 184 L 94 184.5 L 89.5 185 L 89.5 184 Z " /><path fill="rgb(254,254,254)" stroke="rgb(254,254,254)" stroke-width="1" opacity="1" d="M 119.5 184 L 124 184.5 L 119.5 185 L 119.5 184 Z " /><path fill="rgb(254,254,254)" stroke="rgb(254,254,254)" stroke-width="1" opacity="1" d="M 137.5 184 L 142 184.5 L 137.5 185 L 137.5 184 Z " /><path fill="rgb(254,254,254)" stroke="rgb(254,254,254)" stroke-width="1" opacity="1" d="M 159.5 184 L 163 184.5 L 159.5 185 L 159.5 184 Z " /><path fill="rgb(254,254,254)" stroke="rgb(254,254,254)" stroke-width="1" opacity="1" d="M 177.5 184 L 180 184.5 L 177.5 185 L 177.5 184 Z " /><path fill="rgb(255,255,255)" stroke="rgb(255,255,255)" stroke-width="1" opacity="1" d="M 112.5 40 L 157 65.5 L 158 67.5 L 158 117.5 L 154.5 121 L 114.5 144 L 110.5 144 L 70.5 121 L 67 117.5 L 67 67.5 L 69.5 64 L 112.5 40 Z M 113 46 L 76 68 L 112 88 L 115 88 L 149 68 L 113 46 Z M 73 72 L 73 116 L 109 136 L 110 136 L 110 94 L 73 72 Z M 152 72 L 115 94 L 116 137 L 152 117 L 152 72 Z " /><path fill="rgb(255,255,255)" stroke="rgb(255,255,255)" stroke-width="1" opacity="1" d="M 21.5 153 L 25 153.5 L 25 176.5 L 27.5 180 Q 32 181 33 178.5 Q 31.6 169.1 36.5 166 Q 39.2 163.2 45.5 164 L 53 169.5 L 54 176 L 39.5 176 L 39 178.5 Q 40.4 181.6 45.5 181 Q 46.9 177.8 52 179 L 49.5 183 Q 46 185.5 38.5 184 L 35.5 183 L 34.5 184 L 25.5 184 L 21 180.5 L 20 178.5 L 20 154.5 L 21.5 153 Z M 42 168 Q 38 169 39 173 L 48 173 L 48 171 Q 47 167 42 168 Z " /><path fill="rgb(255,255,255)" stroke="rgb(255,255,255)" stroke-width="1" opacity="1" d="M 58 153 Q 61.8 152 63 154.5 L 63.5 168 L 64 166 L 67.5 164 L 71.5 164 L 76 166 Q 79.1 169.6 78 178.5 L 74.5 183 L 65.5 184 L 63 182.5 L 62.5 185 L 58 184 L 58 153 Z M 66 169 L 63 172 Q 62 179 66 180 Q 72 181 73 177 L 72 171 Q 71 168 66 169 Z " /><path fill="rgb(255,255,255)" stroke="rgb(255,255,255)" stroke-width="1" opacity="1" d="M 176.5 153 Q 181.3 152.3 182 155.5 L 181 160 Q 176.4 161.3 175 158.5 Q 174 154 176.5 153 Z " /><path fill="rgb(255,255,255)" stroke="rgb(255,255,255)" stroke-width="1" opacity="1" d="M 89.5 164 Q 97.5 163 100 167.5 Q 103 170.5 102 177.5 L 96.5 184 Q 85 186 82 179.5 L 81 172.5 L 86.5 165 L 89.5 164 Z M 90 169 Q 86 171 87 178 Q 88 181 94 180 L 97 176 L 96 172 Q 95 168 90 169 Z " /><path fill="rgb(255,255,255)" stroke="rgb(255,255,255)" stroke-width="1" opacity="1" d="M 116.5 164 Q 122.3 163.2 124 166.5 L 125 168.5 L 125 184.5 L 123.5 184 L 119 184 L 119 174.5 L 119 172.5 L 117.5 169 Q 111.8 168.3 111 172.5 L 111 183.5 L 107.5 184 L 106 184.5 L 106 165.5 L 109.5 165 L 111.5 168 L 112 166 L 116.5 164 Z " /><path fill="rgb(255,255,255)" stroke="rgb(255,255,255)" stroke-width="1" opacity="1" d="M 136.5 164 Q 145.4 163.1 148 168.5 L 142.5 170 Q 141.3 167.7 136.5 169 Q 133.2 170.7 134 176.5 Q 134.8 180.8 140.5 180 L 143.5 178 L 148 180.5 Q 145 186 134.5 184 L 131 182 L 129 178.5 L 129 170.5 L 133.5 165 L 136.5 164 Z " /><path fill="rgb(255,255,255)" stroke="rgb(255,255,255)" stroke-width="1" opacity="1" d="M 158.5 164 Q 167.4 163.1 170 168.5 L 172 174.5 L 170 180.5 L 167.5 183 Q 164 185.5 156.5 184 L 152 180.5 Q 149.7 177.3 151 170.5 L 155.5 165 L 158.5 164 Z M 159 169 L 156 173 Q 155 179 160 180 Q 165 181 166 177 L 165 171 Q 164 168 159 169 Z " /><path fill="rgb(255,255,255)" stroke="rgb(255,255,255)" stroke-width="1" opacity="1" d="M 178.5 164 L 181 165 L 181 183.5 L 176 184 L 176 165.5 L 177.5 165 L 178.5 164 Z " /><path fill="rgb(255,255,255)" stroke="rgb(255,255,255)" stroke-width="1" opacity="1" d="M 196.5 164 Q 202.8 162.8 204 166.5 L 205 168.5 L 205 184 L 200 184 L 200 172.5 L 197.5 169 Q 192.8 168.3 192 171.5 L 191 173.5 L 191 184 L 186 183.5 L 186 165 Q 189.8 164 191 166.5 L 191.5 168 L 192 166 L 196.5 164 Z " /></svg>