<svg width="225" height="225" version="1.1" xmlns="http://www.w3.org/2000/svg" desc="Created with imagetracer.js version 1.2.6" ><path fill="rgb(252,36,98)" stroke="rgb(252,36,98)" stroke-width="1" opacity="1" d="M 103.5 55 L 122 55.5 L 103.5 56 L 103.5 55 Z " /><path fill="rgb(252,36,98)" stroke="rgb(252,36,98)" stroke-width="1" opacity="1" d="M 97.5 56 L 100 56.5 L 97.5 57 L 97.5 56 Z " /><path fill="rgb(252,36,98)" stroke="rgb(252,36,98)" stroke-width="1" opacity="1" d="M 125.5 56 L 128 56.5 L 125.5 57 L 125.5 56 Z " /><path fill="rgb(252,36,98)" stroke="rgb(252,36,98)" stroke-width="1" opacity="1" d="M 79.5 63 L 78.5 65 L 79.5 63 Z " /><path fill="rgb(252,36,98)" stroke="rgb(252,36,98)" stroke-width="1" opacity="1" d="M 76.5 65 L 75.5 67 L 76.5 65 Z " /><path fill="rgb(252,36,98)" stroke="rgb(252,36,98)" stroke-width="1" opacity="1" d="M 150.5 66 L 152.5 69 L 150.5 66 Z " /><path fill="rgb(252,36,98)" stroke="rgb(252,36,98)" stroke-width="1" opacity="1" d="M 67.5 74 L 66.5 76 L 67.5 74 Z " /><path fill="rgb(252,36,98)" stroke="rgb(252,36,98)" stroke-width="1" opacity="1" d="M 158.5 74 L 159.5 76 L 158.5 74 Z " /><path fill="rgb(252,36,98)" stroke="rgb(252,36,98)" stroke-width="1" opacity="1" d="M 65.5 77 L 64.5 79 L 65.5 77 Z " /><path fill="rgb(252,36,98)" stroke="rgb(252,36,98)" stroke-width="1" opacity="1" d="M 161.5 78 L 162.5 80 L 161.5 78 Z " /><path fill="rgb(252,36,98)" stroke="rgb(252,36,98)" stroke-width="1" opacity="1" d="M 108.5 83 L 111 83.5 L 108.5 84 L 108.5 83 Z " /><path fill="rgb(252,36,98)" stroke="rgb(252,36,98)" stroke-width="1" opacity="1" d="M 115.5 83 L 118 83.5 L 115.5 84 L 115.5 83 Z " /><path fill="rgb(252,36,98)" stroke="rgb(252,36,98)" stroke-width="1" opacity="1" d="M 103.5 85 L 102.5 87 L 103.5 85 Z " /><path fill="rgb(252,36,98)" stroke="rgb(252,36,98)" stroke-width="1" opacity="1" d="M 123.5 86 L 125.5 89 L 123.5 86 Z " /><path fill="rgb(252,36,98)" stroke="rgb(252,36,98)" stroke-width="1" opacity="1" d="M 99.5 89 L 98.5 91 L 99.5 89 Z " /><path fill="rgb(252,36,98)" stroke="rgb(252,36,98)" stroke-width="1" opacity="1" d="M 58.5 94 L 59 96.5 L 58 96.5 L 58.5 94 Z " /><path fill="rgb(252,36,98)" stroke="rgb(252,36,98)" stroke-width="1" opacity="1" d="M 167.5 94 L 168 98.5 L 167 98.5 L 167.5 94 Z " /><path fill="rgb(252,36,98)" stroke="rgb(252,36,98)" stroke-width="1" opacity="1" d="M 95.5 100 L 96 106.5 L 95 106.5 L 95.5 100 Z " /><path fill="rgb(252,36,98)" stroke="rgb(252,36,98)" stroke-width="1" opacity="1" d="M 57.5 101 L 58 123.5 L 57 123.5 L 57.5 101 Z " /><path fill="rgb(252,36,98)" stroke="rgb(252,36,98)" stroke-width="1" opacity="1" d="M 132.5 101 L 165 101.5 L 132.5 102 L 132.5 101 Z " /><path fill="rgb(252,36,98)" stroke="rgb(252,36,98)" stroke-width="1" opacity="1" d="M 95.5 118 L 96 124.5 L 95 124.5 L 95.5 118 Z " /><path fill="rgb(252,36,98)" stroke="rgb(252,36,98)" stroke-width="1" opacity="1" d="M 133.5 121 L 165 121.5 L 133.5 122 L 133.5 121 Z " /><path fill="rgb(252,36,98)" stroke="rgb(252,36,98)" stroke-width="1" opacity="1" d="M 131.5 122 L 130.5 124 L 131.5 122 Z " /><path fill="rgb(252,36,98)" stroke="rgb(252,36,98)" stroke-width="1" opacity="1" d="M 96.5 127 L 97 129.5 L 96 129.5 L 96.5 127 Z " /><path fill="rgb(252,36,98)" stroke="rgb(252,36,98)" stroke-width="1" opacity="1" d="M 58.5 128 L 59 130.5 L 58 130.5 L 58.5 128 Z " /><path fill="rgb(252,36,98)" stroke="rgb(252,36,98)" stroke-width="1" opacity="1" d="M 167.5 129 L 168 131.5 L 167 131.5 L 167.5 129 Z " /><path fill="rgb(252,36,98)" stroke="rgb(252,36,98)" stroke-width="1" opacity="1" d="M 98.5 134 L 99.5 136 L 98.5 134 Z " /><path fill="rgb(252,36,98)" stroke="rgb(252,36,98)" stroke-width="1" opacity="1" d="M 125.5 136 L 122.5 140 L 125.5 136 Z " /><path fill="rgb(252,36,98)" stroke="rgb(252,36,98)" stroke-width="1" opacity="1" d="M 108.5 141 L 111 141.5 L 108.5 142 L 108.5 141 Z " /><path fill="rgb(252,36,98)" stroke="rgb(252,36,98)" stroke-width="1" opacity="1" d="M 115.5 141 L 118 141.5 L 115.5 142 L 115.5 141 Z " /><path fill="rgb(252,36,98)" stroke="rgb(252,36,98)" stroke-width="1" opacity="1" d="M 162.5 145 L 161.5 147 L 162.5 145 Z " /><path fill="rgb(252,36,98)" stroke="rgb(252,36,98)" stroke-width="1" opacity="1" d="M 160.5 148 L 159.5 150 L 160.5 148 Z " /><path fill="rgb(252,36,98)" stroke="rgb(252,36,98)" stroke-width="1" opacity="1" d="M 67.5 150 L 68.5 152 L 67.5 150 Z " /><path fill="rgb(252,36,98)" stroke="rgb(252,36,98)" stroke-width="1" opacity="1" d="M 74.5 157 L 76.5 160 L 74.5 157 Z " /><path fill="rgb(252,36,98)" stroke="rgb(252,36,98)" stroke-width="1" opacity="1" d="M 151.5 157 L 150.5 159 L 151.5 157 Z " /><path fill="rgb(252,36,98)" stroke="rgb(252,36,98)" stroke-width="1" opacity="1" d="M 78.5 160 L 79.5 162 L 78.5 160 Z " /><path fill="rgb(252,36,98)" stroke="rgb(252,36,98)" stroke-width="1" opacity="1" d="M 97.5 168 L 100 168.5 L 97.5 169 L 97.5 168 Z " /><path fill="rgb(252,36,98)" stroke="rgb(252,36,98)" stroke-width="1" opacity="1" d="M 125.5 168 L 128 168.5 L 125.5 169 L 125.5 168 Z " /><path fill="rgb(252,36,98)" stroke="rgb(252,36,98)" stroke-width="1" opacity="1" d="M 103.5 169 L 122 169.5 L 103.5 170 L 103.5 169 Z " /><path fill="rgb(255,0,77)" stroke="rgb(255,0,77)" stroke-width="1" opacity="1" d="M 103.5 54 L 122.5 54 L 128.5 56 L 133.5 56 L 149 64.5 L 147.5 64 Q 132 53 103.5 55 L 87.5 59 L 78.5 64 L 79.5 62 L 87.5 58 L 103.5 54 Z " /><path fill="rgb(255,0,77)" stroke="rgb(255,0,77)" stroke-width="1" opacity="1" d="M 76.5 64 L 72.5 69 L 70 70.5 Q 62.9 77.9 59.5 89 L 59 87.5 L 67 72 Q 69.7 73.1 69 70.5 L 76.5 64 Z " /><path fill="rgb(255,0,77)" stroke="rgb(255,0,77)" stroke-width="1" opacity="1" d="M 150.5 65 L 157 70.5 L 159 73.5 L 162 78 Q 165 76.8 164 80.5 L 167 87.5 L 166 87.5 L 161 76.5 L 150.5 65 Z " /><path fill="rgb(255,0,77)" stroke="rgb(255,0,77)" stroke-width="1" opacity="1" d="M 111.5 83 Q 115.3 82 114 85 Q 107.1 84 104 86 Q 105.1 88.7 102.5 88 Q 98.4 90.9 97.5 97 L 97 94.5 L 101 87 L 111.5 83 Z " /><path fill="rgb(255,0,77)" stroke="rgb(255,0,77)" stroke-width="1" opacity="1" d="M 115.5 84 Q 123 84.5 126 89.5 L 130 101 L 132.5 102 L 164.5 102 L 167 101 L 168 94.5 L 167 89.5 L 168 89.5 L 169 98.5 L 166.5 102 L 164.5 103 L 132.5 103 L 129 100.5 Q 127.6 91.9 122.5 87 L 115.5 85 L 115.5 84 Z " /><path fill="rgb(255,0,77)" stroke="rgb(255,0,77)" stroke-width="1" opacity="1" d="M 58.5 90 L 59 92.5 L 58 92.5 L 58.5 90 Z " /><path fill="rgb(255,0,77)" stroke="rgb(255,0,77)" stroke-width="1" opacity="1" d="M 57.5 94 L 58 99.5 L 57 99.5 L 57.5 94 Z " /><path fill="rgb(255,0,77)" stroke="rgb(255,0,77)" stroke-width="1" opacity="1" d="M 96.5 98 L 97 105.5 L 96 105.5 L 96.5 98 Z " /><path fill="rgb(255,0,77)" stroke="rgb(255,0,77)" stroke-width="1" opacity="1" d="M 56.5 102 L 57 122.5 L 56 122.5 L 56.5 102 Z " /><path fill="rgb(255,0,77)" stroke="rgb(255,0,77)" stroke-width="1" opacity="1" d="M 96.5 107 L 96 108.5 L 96 117.5 L 97 118.5 L 95 117.5 L 95 108.5 L 96.5 107 Z " /><path fill="rgb(255,0,77)" stroke="rgb(255,0,77)" stroke-width="1" opacity="1" d="M 96.5 120 Q 96.6 133.4 104.5 139 L 106.5 140 L 119.5 140 L 125 135.5 L 128.5 125 L 129 128.5 Q 127.1 136.2 121.5 140 L 111.5 142 L 101 138 L 97 130.5 L 96.5 120 Z " /><path fill="rgb(255,0,77)" stroke="rgb(255,0,77)" stroke-width="1" opacity="1" d="M 133.5 120 L 164.5 120 L 169 123.5 L 169 132.5 L 167 139.5 Q 162.7 150.2 154.5 157 Q 147.4 163.9 136.5 167 L 136.5 166 Q 149.4 162.4 157 153.5 L 166 139.5 L 168 131.5 L 168 123.5 L 164.5 121 L 133.5 121 L 133.5 120 Z " /><path fill="rgb(255,0,77)" stroke="rgb(255,0,77)" stroke-width="1" opacity="1" d="M 130 121 L 132 121.5 L 129 123.5 L 130 121 Z " /><path fill="rgb(255,0,77)" stroke="rgb(255,0,77)" stroke-width="1" opacity="1" d="M 57.5 125 L 58 130.5 L 57 130.5 L 57.5 125 Z " /><path fill="rgb(255,0,77)" stroke="rgb(255,0,77)" stroke-width="1" opacity="1" d="M 58.5 132 L 64 145.5 L 62 144.5 L 58 134.5 L 58.5 132 Z " /><path fill="rgb(255,0,77)" stroke="rgb(255,0,77)" stroke-width="1" opacity="1" d="M 64.5 147 L 70 153.5 L 65 149.5 L 64.5 147 Z " /><path fill="rgb(255,0,77)" stroke="rgb(255,0,77)" stroke-width="1" opacity="1" d="M 70.5 155 Q 78 162.5 89 166.5 L 87.5 167 L 74 160 Q 75.1 157.3 72.5 158 L 70.5 155 Z " /><path fill="rgb(255,0,77)" stroke="rgb(255,0,77)" stroke-width="1" opacity="1" d="M 90.5 167 L 103.5 170 L 121.5 170 L 134.5 167 L 134.5 168 L 124.5 171 L 122.5 170 L 121.5 171 L 103.5 171 L 90.5 168 L 90.5 167 Z " /><path fill="rgb(255,0,78)" stroke="rgb(255,0,78)" stroke-width="1" opacity="1" d="M 0 0 L 225 0 L 225 225 L 0 225 L 0 0 Z M 104 54 L 88 58 L 80 62 L 78 65 L 77 64 L 74 66 Q 69 68 72 70 L 69 71 Q 70 73 67 72 L 59 88 L 60 90 L 58 90 L 59 94 L 57 94 L 58 101 L 56 103 L 56 123 Q 59 124 57 126 Q 56 132 59 131 L 58 133 L 62 145 L 65 146 L 64 148 L 65 150 L 67 149 L 66 151 L 71 154 Q 69 156 73 158 Q 75 157 74 160 L 88 167 L 90 166 L 90 168 L 104 171 L 122 171 L 123 170 L 125 171 L 133 168 Q 136 169 135 167 L 137 167 L 143 165 L 143 163 L 145 164 L 144 163 L 146 163 L 155 157 L 154 156 Q 156 151 158 154 L 167 140 L 169 133 L 169 124 L 168 124 Q 165 123 167 122 L 165 120 L 134 120 L 133 122 L 132 121 Q 129 120 130 123 L 130 125 L 128 125 L 125 136 L 120 140 L 107 140 L 105 139 L 103 139 L 103 138 Q 102 135 101 137 L 101 136 L 97 127 L 97 121 L 97 119 L 96 118 L 96 109 Q 94 107 97 106 Q 99 99 96 98 L 98 97 L 100 91 L 100 89 L 103 88 Q 105 89 104 86 Q 107 84 114 85 L 115 83 L 115 85 L 120 84 L 120 86 L 122 85 L 121 87 L 123 87 Q 128 92 129 101 L 131 100 L 130 102 L 133 103 L 165 103 L 167 102 L 166 101 L 168 101 L 169 99 Q 170 94 168 93 Q 169 88 167 89 L 167 88 L 164 81 L 164 78 Q 161 79 162 77 L 161 77 Q 162 75 159 74 L 157 71 L 154 68 L 151 65 L 150 66 L 149 65 L 147 63 L 145 63 L 145 61 L 143 62 L 143 60 L 141 61 L 141 60 L 138 58 L 136 59 L 136 58 L 123 54 L 104 54 Z " /><path fill="rgb(252,210,224)" stroke="rgb(252,210,224)" stroke-width="1" opacity="1" d="M 100.5 56 L 104 56.5 L 100.5 57 L 100.5 56 Z " /><path fill="rgb(252,210,224)" stroke="rgb(252,210,224)" stroke-width="1" opacity="1" d="M 121.5 56 L 125 56.5 L 121.5 57 L 121.5 56 Z " /><path fill="rgb(252,210,224)" stroke="rgb(252,210,224)" stroke-width="1" opacity="1" d="M 95.5 57 L 98 57.5 L 95.5 58 L 95.5 57 Z " /><path fill="rgb(252,210,224)" stroke="rgb(252,210,224)" stroke-width="1" opacity="1" d="M 80.5 63 L 79.5 65 L 80.5 63 Z " /><path fill="rgb(252,210,224)" stroke="rgb(252,210,224)" stroke-width="1" opacity="1" d="M 77.5 65 L 76.5 67 L 77.5 65 Z " /><path fill="rgb(252,210,224)" stroke="rgb(252,210,224)" stroke-width="1" opacity="1" d="M 148.5 65 L 150.5 68 L 148.5 65 Z " /><path fill="rgb(252,210,224)" stroke="rgb(252,210,224)" stroke-width="1" opacity="1" d="M 74.5 67 L 68.5 74 L 74.5 67 Z " /><path fill="rgb(252,210,224)" stroke="rgb(252,210,224)" stroke-width="1" opacity="1" d="M 153.5 69 L 157.5 74 L 153.5 69 Z " /><path fill="rgb(252,210,224)" stroke="rgb(252,210,224)" stroke-width="1" opacity="1" d="M 67.5 75 L 66.5 77 L 67.5 75 Z " /><path fill="rgb(252,210,224)" stroke="rgb(252,210,224)" stroke-width="1" opacity="1" d="M 159.5 76 L 160.5 78 L 159.5 76 Z " /><path fill="rgb(252,210,224)" stroke="rgb(252,210,224)" stroke-width="1" opacity="1" d="M 65.5 78 L 64.5 80 L 65.5 78 Z " /><path fill="rgb(252,210,224)" stroke="rgb(252,210,224)" stroke-width="1" opacity="1" d="M 161.5 79 L 162.5 81 L 161.5 79 Z " /><path fill="rgb(252,210,224)" stroke="rgb(252,210,224)" stroke-width="1" opacity="1" d="M 111.5 82 L 115 82.5 L 111.5 83 L 111.5 82 Z " /><path fill="rgb(252,210,224)" stroke="rgb(252,210,224)" stroke-width="1" opacity="1" d="M 121.5 84 L 122.5 86 L 121.5 84 Z " /><path fill="rgb(252,210,224)" stroke="rgb(252,210,224)" stroke-width="1" opacity="1" d="M 102.5 85 L 99.5 89 L 102.5 85 Z " /><path fill="rgb(252,210,224)" stroke="rgb(252,210,224)" stroke-width="1" opacity="1" d="M 166.5 91 L 167 93.5 L 166 93.5 L 166.5 91 Z " /><path fill="rgb(252,210,224)" stroke="rgb(252,210,224)" stroke-width="1" opacity="1" d="M 129.5 95 L 130 97.5 L 129 97.5 L 129.5 95 Z " /><path fill="rgb(252,210,224)" stroke="rgb(252,210,224)" stroke-width="1" opacity="1" d="M 58.5 97 L 59 100.5 L 58 100.5 L 58.5 97 Z " /><path fill="rgb(252,210,224)" stroke="rgb(252,210,224)" stroke-width="1" opacity="1" d="M 95.5 97 L 96 99.5 L 95 99.5 L 95.5 97 Z " /><path fill="rgb(252,210,224)" stroke="rgb(252,210,224)" stroke-width="1" opacity="1" d="M 130.5 99 L 131.5 101 L 130.5 99 Z " /><path fill="rgb(252,210,224)" stroke="rgb(252,210,224)" stroke-width="1" opacity="1" d="M 166.5 99 L 165.5 101 L 166.5 99 Z " /><path fill="rgb(252,210,224)" stroke="rgb(252,210,224)" stroke-width="1" opacity="1" d="M 94.5 104 L 95 120.5 L 94 120.5 L 94.5 104 Z " /><path fill="rgb(252,210,224)" stroke="rgb(252,210,224)" stroke-width="1" opacity="1" d="M 164.5 122 L 167 123.5 L 165.5 123 L 164.5 122 Z " /><path fill="rgb(252,210,224)" stroke="rgb(252,210,224)" stroke-width="1" opacity="1" d="M 58.5 124 L 59 127.5 L 58 127.5 L 58.5 124 Z " /><path fill="rgb(252,210,224)" stroke="rgb(252,210,224)" stroke-width="1" opacity="1" d="M 95.5 125 L 96 127.5 L 95 127.5 L 95.5 125 Z " /><path fill="rgb(252,210,224)" stroke="rgb(252,210,224)" stroke-width="1" opacity="1" d="M 167.5 125 L 168 128.5 L 167 128.5 L 167.5 125 Z " /><path fill="rgb(252,210,224)" stroke="rgb(252,210,224)" stroke-width="1" opacity="1" d="M 166.5 132 L 167 134.5 L 166 134.5 L 166.5 132 Z " /><path fill="rgb(252,210,224)" stroke="rgb(252,210,224)" stroke-width="1" opacity="1" d="M 98.5 135 L 102.5 140 L 98.5 135 Z " /><path fill="rgb(252,210,224)" stroke="rgb(252,210,224)" stroke-width="1" opacity="1" d="M 125.5 137 L 124.5 139 L 125.5 137 Z " /><path fill="rgb(252,210,224)" stroke="rgb(252,210,224)" stroke-width="1" opacity="1" d="M 111.5 142 L 115 142.5 L 111.5 143 L 111.5 142 Z " /><path fill="rgb(252,210,224)" stroke="rgb(252,210,224)" stroke-width="1" opacity="1" d="M 162.5 144 L 161.5 146 L 162.5 144 Z " /><path fill="rgb(252,210,224)" stroke="rgb(252,210,224)" stroke-width="1" opacity="1" d="M 64.5 145 L 65.5 147 L 64.5 145 Z " /><path fill="rgb(252,210,224)" stroke="rgb(252,210,224)" stroke-width="1" opacity="1" d="M 160.5 147 L 159.5 149 L 160.5 147 Z " /><path fill="rgb(252,210,224)" stroke="rgb(252,210,224)" stroke-width="1" opacity="1" d="M 66.5 148 L 67.5 150 L 66.5 148 Z " /><path fill="rgb(252,210,224)" stroke="rgb(252,210,224)" stroke-width="1" opacity="1" d="M 158.5 150 L 152.5 157 L 158.5 150 Z " /><path fill="rgb(252,210,224)" stroke="rgb(252,210,224)" stroke-width="1" opacity="1" d="M 69.5 152 L 73.5 157 L 69.5 152 Z " /><path fill="rgb(252,210,224)" stroke="rgb(252,210,224)" stroke-width="1" opacity="1" d="M 150.5 157 L 148.5 160 L 150.5 157 Z " /><path fill="rgb(252,210,224)" stroke="rgb(252,210,224)" stroke-width="1" opacity="1" d="M 76.5 158 L 77.5 160 L 76.5 158 Z " /><path fill="rgb(252,210,224)" stroke="rgb(252,210,224)" stroke-width="1" opacity="1" d="M 79.5 160 L 80.5 162 L 79.5 160 Z " /><path fill="rgb(252,210,224)" stroke="rgb(252,210,224)" stroke-width="1" opacity="1" d="M 95.5 167 L 98 167.5 L 95.5 168 L 95.5 167 Z " /><path fill="rgb(252,210,224)" stroke="rgb(252,210,224)" stroke-width="1" opacity="1" d="M 127.5 167 L 130 167.5 L 127.5 168 L 127.5 167 Z " /><path fill="rgb(252,210,224)" stroke="rgb(252,210,224)" stroke-width="1" opacity="1" d="M 100.5 168 L 104 168.5 L 100.5 169 L 100.5 168 Z " /><path fill="rgb(252,210,224)" stroke="rgb(252,210,224)" stroke-width="1" opacity="1" d="M 121.5 168 L 125 168.5 L 121.5 169 L 121.5 168 Z " /><path fill="rgb(254,255,255)" stroke="rgb(254,255,255)" stroke-width="1" opacity="1" d="M 104.5 56 L 106 56.5 L 103.5 58 L 104.5 56 Z " /><path fill="rgb(254,255,255)" stroke="rgb(254,255,255)" stroke-width="1" opacity="1" d="M 119.5 56 L 124 57.5 L 120.5 58 L 119.5 56 Z " /><path fill="rgb(254,255,255)" stroke="rgb(254,255,255)" stroke-width="1" opacity="1" d="M 93.5 58 L 92.5 60 L 93.5 58 Z " /><path fill="rgb(254,255,255)" stroke="rgb(254,255,255)" stroke-width="1" opacity="1" d="M 130.5 58 L 135 59.5 L 131.5 60 L 130.5 58 Z " /><path fill="rgb(254,255,255)" stroke="rgb(254,255,255)" stroke-width="1" opacity="1" d="M 87.5 60 L 86.5 62 L 81.5 65 L 81 63 L 87.5 60 Z " /><path fill="rgb(254,255,255)" stroke="rgb(254,255,255)" stroke-width="1" opacity="1" d="M 78.5 65 L 77.5 67 L 78.5 65 Z " /><path fill="rgb(254,255,255)" stroke="rgb(254,255,255)" stroke-width="1" opacity="1" d="M 147.5 65 L 148.5 67 L 147.5 65 Z " /><path fill="rgb(254,255,255)" stroke="rgb(254,255,255)" stroke-width="1" opacity="1" d="M 153.5 70 L 158.5 76 L 155 74 Q 156 71 153 72 L 153.5 70 Z " /><path fill="rgb(254,255,255)" stroke="rgb(254,255,255)" stroke-width="1" opacity="1" d="M 69.5 73 L 68.5 75 L 69.5 73 Z " /><path fill="rgb(254,255,255)" stroke="rgb(254,255,255)" stroke-width="1" opacity="1" d="M 159.5 77 L 161 79.5 L 160 79.5 L 159.5 77 Z " /><path fill="rgb(254,255,255)" stroke="rgb(254,255,255)" stroke-width="1" opacity="1" d="M 64.5 80 L 65 83 L 63 82.5 L 64.5 80 Z " /><path fill="rgb(254,255,255)" stroke="rgb(254,255,255)" stroke-width="1" opacity="1" d="M 104.5 83 L 106 83.5 L 102.5 85 L 102.5 84 L 104.5 83 Z " /><path fill="rgb(254,255,255)" stroke="rgb(254,255,255)" stroke-width="1" opacity="1" d="M 123.5 84 L 127 86.5 Q 125 90 123 85.5 L 123.5 84 Z " /><path fill="rgb(254,255,255)" stroke="rgb(254,255,255)" stroke-width="1" opacity="1" d="M 97 89 L 99 89.5 L 97 90.5 L 97 89 Z " /><path fill="rgb(254,255,255)" stroke="rgb(254,255,255)" stroke-width="1" opacity="1" d="M 165.5 89 L 166 92.5 L 165 92.5 L 165.5 89 Z " /><path fill="rgb(254,255,255)" stroke="rgb(254,255,255)" stroke-width="1" opacity="1" d="M 127.5 90 L 130 93.5 L 128 92.5 L 127.5 90 Z " /><path fill="rgb(254,255,255)" stroke="rgb(254,255,255)" stroke-width="1" opacity="1" d="M 130.5 98 L 132.5 100 L 164.5 100 L 167 98.5 L 164.5 101 L 132.5 101 L 130.5 98 Z " /><path fill="rgb(254,255,255)" stroke="rgb(254,255,255)" stroke-width="1" opacity="1" d="M 59.5 100 L 60 101.5 L 58.5 105 L 58 101.5 L 59.5 100 Z " /><path fill="rgb(254,255,255)" stroke="rgb(254,255,255)" stroke-width="1" opacity="1" d="M 94.5 102 L 95 103.5 L 93.5 107 L 93 104.5 L 94.5 102 Z " /><path fill="rgb(254,255,255)" stroke="rgb(254,255,255)" stroke-width="1" opacity="1" d="M 58.5 121 L 60 124.5 L 58 123.5 L 58.5 121 Z " /><path fill="rgb(254,255,255)" stroke="rgb(254,255,255)" stroke-width="1" opacity="1" d="M 133.5 122 L 164 122.5 L 133.5 123 L 133.5 122 Z " /><path fill="rgb(254,255,255)" stroke="rgb(254,255,255)" stroke-width="1" opacity="1" d="M 165.5 130 Q 168.5 131.5 165.5 133 L 165.5 130 Z " /><path fill="rgb(254,255,255)" stroke="rgb(254,255,255)" stroke-width="1" opacity="1" d="M 129.5 131 L 130 133 L 128 132.5 L 129.5 131 Z " /><path fill="rgb(254,255,255)" stroke="rgb(254,255,255)" stroke-width="1" opacity="1" d="M 99.5 137 L 100.5 139 L 99.5 137 Z " /><path fill="rgb(254,255,255)" stroke="rgb(254,255,255)" stroke-width="1" opacity="1" d="M 125.5 138 L 123.5 141 L 122 140.5 L 125.5 138 Z " /><path fill="rgb(254,255,255)" stroke="rgb(254,255,255)" stroke-width="1" opacity="1" d="M 102.5 140 L 106 141 L 105.5 143 L 102.5 140 Z " /><path fill="rgb(254,255,255)" stroke="rgb(254,255,255)" stroke-width="1" opacity="1" d="M 63.5 142 L 65 144.5 L 64 144.5 L 63.5 142 Z " /><path fill="rgb(254,255,255)" stroke="rgb(254,255,255)" stroke-width="1" opacity="1" d="M 66.5 146 L 67 148 L 69 148.5 L 67.5 149 L 66.5 146 Z " /><path fill="rgb(254,255,255)" stroke="rgb(254,255,255)" stroke-width="1" opacity="1" d="M 157 149 L 159 149.5 L 157 150.5 L 157 149 Z " /><path fill="rgb(254,255,255)" stroke="rgb(254,255,255)" stroke-width="1" opacity="1" d="M 68.5 150 L 69.5 152 L 68.5 150 Z " /><path fill="rgb(254,255,255)" stroke="rgb(254,255,255)" stroke-width="1" opacity="1" d="M 154.5 153 L 151.5 157 L 151 154.5 Q 152.8 156.1 154.5 153 Z " /><path fill="rgb(254,255,255)" stroke="rgb(254,255,255)" stroke-width="1" opacity="1" d="M 73.5 155 L 75.5 158 L 73.5 155 Z " /><path fill="rgb(254,255,255)" stroke="rgb(254,255,255)" stroke-width="1" opacity="1" d="M 77.5 158 Q 79.8 157.3 79 159.5 L 77.5 158 Z " /><path fill="rgb(254,255,255)" stroke="rgb(254,255,255)" stroke-width="1" opacity="1" d="M 147 158 L 149 158.5 L 147 159.5 L 147 158 Z " /><path fill="rgb(254,255,255)" stroke="rgb(254,255,255)" stroke-width="1" opacity="1" d="M 80.5 160 L 81.5 162 L 80.5 160 Z " /><path fill="rgb(254,255,255)" stroke="rgb(254,255,255)" stroke-width="1" opacity="1" d="M 83.5 162 L 86 163.5 L 84.5 163 L 83.5 162 Z " /><path fill="rgb(254,255,255)" stroke="rgb(254,255,255)" stroke-width="1" opacity="1" d="M 92.5 165 L 93.5 167 L 92.5 165 Z " /><path fill="rgb(254,255,255)" stroke="rgb(254,255,255)" stroke-width="1" opacity="1" d="M 131.5 165 L 133 165.5 L 130.5 167 L 131.5 165 Z " /><path fill="rgb(254,255,255)" stroke="rgb(254,255,255)" stroke-width="1" opacity="1" d="M 104.5 167 L 105.5 169 Q 102.7 169.7 104.5 167 Z " /><path fill="rgb(254,255,255)" stroke="rgb(254,255,255)" stroke-width="1" opacity="1" d="M 120.5 167 L 121 169 L 119 168.5 L 120.5 167 Z " /><path fill="rgb(255,255,255)" stroke="rgb(255,255,255)" stroke-width="1" opacity="1" d="M 106.5 56 L 118.5 56 Q 119.3 58.8 123.5 58 L 126.5 57 L 131.5 60 L 139.5 61 L 151 68.5 L 151.5 70 L 153 69.5 L 153 72 L 155 72 Q 153.9 74.7 156.5 74 L 160 80 Q 162.7 78.9 162 81.5 L 166 93.5 L 165.5 95 Q 168.1 94.2 167 97.5 L 164.5 100 L 132.5 100 L 129 94.5 L 130 92.5 L 126 87.5 L 126.5 86 L 123.5 84 Q 122 86.5 120.5 83 L 109.5 82 L 102 84 L 102 86 Q 99.3 84.9 100 87.5 L 97 89 L 97 93 L 95.5 93 L 95 95.5 L 95 101.5 L 93 106.5 L 94 109.5 L 93 118.5 L 96 130.5 L 95.5 132 Q 97.8 131.3 97 133.5 L 97.5 136 Q 99.8 135.3 99 137.5 L 102 139 Q 100.9 141.7 103.5 141 Q 105 144.5 106.5 142 L 116.5 143 L 123.5 141 L 126 138.5 L 128 133 Q 130.7 134.1 130 131.5 L 130 129.5 Q 128.5 125.1 131.5 126 L 132.5 123 L 164.5 123 L 167 124 Q 168.8 130.6 165 132.5 L 166 134.5 L 162 145 Q 159 143.8 160 147.5 L 157 149 L 155.5 153 L 152.5 155 L 151 154.5 L 149.5 158 L 147 158 L 147 160 L 144 160 Q 145.3 163 141.5 162 L 133.5 166 L 131.5 165 Q 129.7 168.2 124.5 168 L 122.5 168 L 120.5 167 L 118.5 169 L 106.5 169 Q 105 165.5 103.5 168 L 100.5 167 L 98.5 167 Q 93.5 168 92.5 165 L 90.5 165 L 79 160 Q 80.3 157 76.5 158 L 72 155 L 72 153 Q 69.3 154.1 70 151.5 Q 66.9 149.8 68.5 148 Q 65.9 148.7 67 146 L 65 146 L 65 143.5 L 60 133.5 L 60 131.5 L 59 129.5 L 59 127.5 L 60 122.5 L 58 120.5 L 58 105.5 L 60 100.5 L 59 95.5 L 61 92.5 L 61 90.5 L 63 83 L 65 83 L 65 79 L 66.5 79 Q 64.6 76.3 70 73.5 L 70 72 L 72 72 L 72 70 L 74 70 Q 72.9 67.3 75.5 68 L 80.5 64 Q 82 66.5 83.5 63 L 91.5 59 Q 93 61.5 94.5 58 L 100.5 57 L 103.5 58 L 106.5 56 Z " /></svg>